<svg id="图层_1" data-name="图层 1" xmlns="http://www.w3.org/2000/svg" viewBox="0 0 200 200"><defs><style>.cls-1{fill:#feaa03;}.cls-2{fill:none;stroke:#000;stroke-miterlimit:10;stroke-width:3px;}</style></defs><title>食谱来也图标2</title><rect class="cls-1" width="200" height="200" rx="19.01"/><polygon points="106.27 34.5 45.43 80.66 54.6 93.2 116.32 44.78 106.27 34.5"/><polygon points="100.85 54.06 138.22 82.5 146.25 71.26 107.04 46.73 100.85 54.06"/><path class="cls-2" d="M123.76,145.42a1.57,1.57,0,0,1,.41-2.45c1.53-.74,3.62-2,4.55-3.8,0,0,2.57-5.43,7-4.11a5.82,5.82,0,0,1,4,5.09c.2,2.07-.08,5.18-1.79,9.56a2.82,2.82,0,0,1-3.27,1.79A22.33,22.33,0,0,1,123.76,145.42Z" transform="translate(0 0)"/><path d="M128.23,148.87s4.51-4.26,5.65-9c0,0-.35,6.45-2,9.83l-.59.73Z" transform="translate(0 0)"/><path d="M71.27,84.56s39.21-5.73,56.17.69a26.92,26.92,0,0,1,14,12,24.66,24.66,0,0,1-1.67,26.1,30.64,30.64,0,0,1-7.67,7.42,6.43,6.43,0,0,1-1.15.63h0a27.61,27.61,0,0,1-11,2.28H92.48v-9.52h28.2s12,.69,12-12.15c0,0,.07-8.37-5-11.27a25.7,25.7,0,0,0-6.64-3.25A36.46,36.46,0,0,0,108,95.54L71.57,96.71Z" transform="translate(0 0)"/><polygon points="74.94 105.43 106.27 103.75 106.12 115.97 75.39 117.05 74.94 105.43"/><path d="M75.62,98.09v47.23s.69,3.33,4.82,3.22H92.36v12.84H71.27s-6.88-.12-7-11.35V98.09Z" transform="translate(0 0)"/><path d="M111.62,135.81s21.1,14.67,30.61,17.08L134.9,165.5s-20.64-13.18-29.12-21.21Z" transform="translate(0 0)"/><ellipse class="cls-2" cx="102.94" cy="72.56" rx="8.22" ry="11.19"/><ellipse cx="99.33" cy="72.43" rx="5.14" ry="7.47"/></svg>